<svg xmlns="http://www.w3.org/2000/svg" viewBox="0 0 48 48"><defs><linearGradient id="fdepth" x1="0" y1="0" x2="0" y2="1"><stop offset="0" stop-color="#1b1e25"/><stop offset="1" stop-color="#0c0e12"/></linearGradient></defs><path d="M7 10 h11 a1.4 1.4 0 0 1 1.2 0.8 l1.4 2.4 h18.6 a1.4 1.4 0 0 1 1.4 1.4 v20.8 a1.4 1.4 0 0 1 -1.4 1.4 H7 a1.4 1.4 0 0 1 -1.4 -1.4 V11.4 a1.4 1.4 0 0 1 1.4 -1.4 z" fill="#db3776"/><rect x="7" y="10" width="35" height="2.4" fill="#ffffff" opacity="0.16"/><path d="M5 19 H43 V37.4 a1.4 1.4 0 0 1 -1.4 1.4 H6.4 a1.4 1.4 0 0 1 -1.4 -1.4 z" fill="url(#fdepth)"/><rect x="5" y="19" width="38" height="1.2" fill="#eaf6ff" opacity="0.20"/><path d="M5 19 H43 V37.4 a1.4 1.4 0 0 1 -1.4 1.4 H6.4 a1.4 1.4 0 0 1 -1.4 -1.4 z" fill="none" stroke="#2a2e37" stroke-width="0.7"/><g fill="none" stroke="#eaf6ff" stroke-width="1.7" stroke-linecap="round" stroke-linejoin="round" opacity="0.92"><path d="M24 23v9"/><path d="M20 29l4 4 4-4"/><path d="M18 37h12"/></g></svg>