<svg xmlns="http://www.w3.org/2000/svg" viewBox="0 0 48 48"><path d="M8 10 h10 a2 2 0 0 1 1.7 1 l1.3 2.2 h18 a3 3 0 0 1 3 3 v20 a3 3 0 0 1 -3 3 H8 a3 3 0 0 1 -3 -3 V13 a3 3 0 0 1 3 -3 z" fill="#f1bf40"/><path d="M5 19 H43 V37 a3 3 0 0 1 -3 3 H8 a3 3 0 0 1 -3 -3 z" fill="#16181d"/><rect x="5" y="19" width="38" height="1.1" fill="#eaf6ff" opacity="0.14"/><path d="M8 10 h10 a2 2 0 0 1 1.7 1 l1.3 2.2 h18 a3 3 0 0 1 3 3 v20 a3 3 0 0 1 -3 3 H8 a3 3 0 0 1 -3 -3 V13 a3 3 0 0 1 3 -3 z" fill="none" stroke="#2a2e37" stroke-width="0.7"/><g fill="none" stroke="#eaf6ff" stroke-width="1.7" stroke-linecap="round" stroke-linejoin="round" opacity="0.92"><path d="M18 30.5l6-5.5 6 5.5"/><path d="M20 30v6.5h8V30"/></g></svg>