<svg xmlns="http://www.w3.org/2000/svg" viewBox="0 0 48 48"><g><path d="M24 21 C 18 21, 14.5 15.5, 17 9.5 C 18.2 6.6, 21 6, 22.6 8.4 L 24 10.6 L 25.4 8.4 C 27 6, 29.8 6.6, 31 9.5 C 33.5 15.5, 30 21, 24 21 Z" fill="#eaf6ff" transform="rotate(0.00 24 24)"/><path d="M24 21 C 18 21, 14.5 15.5, 17 9.5 C 18.2 6.6, 21 6, 22.6 8.4 L 24 10.6 L 25.4 8.4 C 27 6, 29.8 6.6, 31 9.5 C 33.5 15.5, 30 21, 24 21 Z" fill="#eaf6ff" transform="rotate(45.00 24 24)"/><path d="M24 21 C 18 21, 14.5 15.5, 17 9.5 C 18.2 6.6, 21 6, 22.6 8.4 L 24 10.6 L 25.4 8.4 C 27 6, 29.8 6.6, 31 9.5 C 33.5 15.5, 30 21, 24 21 Z" fill="#eaf6ff" transform="rotate(90.00 24 24)"/><path d="M24 21 C 18 21, 14.5 15.5, 17 9.5 C 18.2 6.6, 21 6, 22.6 8.4 L 24 10.6 L 25.4 8.4 C 27 6, 29.8 6.6, 31 9.5 C 33.5 15.5, 30 21, 24 21 Z" fill="#eaf6ff" transform="rotate(135.00 24 24)"/><path d="M24 21 C 18 21, 14.5 15.5, 17 9.5 C 18.2 6.6, 21 6, 22.6 8.4 L 24 10.6 L 25.4 8.4 C 27 6, 29.8 6.6, 31 9.5 C 33.5 15.5, 30 21, 24 21 Z" fill="#eaf6ff" transform="rotate(180.00 24 24)"/><path d="M24 21 C 18 21, 14.5 15.5, 17 9.5 C 18.2 6.6, 21 6, 22.6 8.4 L 24 10.6 L 25.4 8.4 C 27 6, 29.8 6.6, 31 9.5 C 33.5 15.5, 30 21, 24 21 Z" fill="#eaf6ff" transform="rotate(225.00 24 24)"/><path d="M24 21 C 18 21, 14.5 15.5, 17 9.5 C 18.2 6.6, 21 6, 22.6 8.4 L 24 10.6 L 25.4 8.4 C 27 6, 29.8 6.6, 31 9.5 C 33.5 15.5, 30 21, 24 21 Z" fill="#eaf6ff" transform="rotate(270.00 24 24)"/><path d="M24 21 C 18 21, 14.5 15.5, 17 9.5 C 18.2 6.6, 21 6, 22.6 8.4 L 24 10.6 L 25.4 8.4 C 27 6, 29.8 6.6, 31 9.5 C 33.5 15.5, 30 21, 24 21 Z" fill="#eaf6ff" transform="rotate(315.00 24 24)"/></g><circle cx="24" cy="24" r="3.2" fill="#9b6cf2"/></svg>