<svg xmlns="http://www.w3.org/2000/svg" viewBox="0 0 48 48"><path d="M2 39 q7 -3 12 0 t12 0 t12 0 t10 0 V46 H2 Z" fill="#3fbf63"/><path d="M2 39 q7 -3 12 0 t12 0 t12 0 t10 0" fill="none" stroke="#5fe089" stroke-width="1.1" opacity="0.8"/><rect x="7.2" y="33" width="2.6" height="9" rx="1" fill="#7a5a36"/><circle cx="8.5" cy="30" r="5.2" fill="#37c46a"/><circle cx="5.4" cy="32" r="3.4" fill="#37c46a"/><circle cx="11.6" cy="32" r="3.4" fill="#37c46a"/><circle cx="7" cy="28.5" r="1.2" fill="#5fe089" opacity="0.7"/><rect x="33" y="9" width="4.2" height="8" fill="#c25a4f" stroke="#34251f" stroke-width="0.6"/><path d="M15 19 L28 10.5 L41 19 Z" fill="#8f4a39" stroke="#34251f" stroke-width="0.7" stroke-linejoin="round"/><rect x="17" y="19" width="22" height="21" fill="#c25a4f" stroke="#34251f" stroke-width="0.7"/><g stroke="#34251f" stroke-width="0.8"><path d="M17 24.2h22M17 29.4h22M17 34.6h22"/><path d="M22 19v5.2M28 19v5.2M34 19v5.2"/><path d="M19.4 24.2v5.2M25 24.2v5.2M31 24.2v5.2M36.5 24.2v5.2"/><path d="M22 29.4v5.2M28 29.4v5.2M34 29.4v5.2"/><path d="M19.4 34.6v5.4M25 34.6v5.4M31 34.6v5.4M36.5 34.6v5.4"/></g><rect x="20.5" y="26" width="11" height="12" rx="0.6" fill="#0c0f14" stroke="#34251f" stroke-width="0.7"/><g stroke="#db3776" stroke-width="2.6" stroke-linecap="round" opacity="0.35"><path d="M26 28.4v7.2"/></g><g stroke="#eaf6ff" stroke-width="1.3" stroke-linecap="round"><path d="M26 28.4v7.2"/><path d="M24.3 28.4h3.4"/><path d="M24.3 35.6h3.4"/></g></svg>