<svg xmlns="http://www.w3.org/2000/svg" viewBox="0 0 48 48"><g><ellipse cx="24" cy="12.5" rx="6.6" ry="11" fill="#db3776" transform="rotate(0 24 24)"/><ellipse cx="24" cy="12.5" rx="6.6" ry="11" fill="#db3776" transform="rotate(72 24 24)"/><ellipse cx="24" cy="12.5" rx="6.6" ry="11" fill="#db3776" transform="rotate(144 24 24)"/><ellipse cx="24" cy="12.5" rx="6.6" ry="11" fill="#db3776" transform="rotate(216 24 24)"/><ellipse cx="24" cy="12.5" rx="6.6" ry="11" fill="#db3776" transform="rotate(288 24 24)"/></g><g><ellipse cx="24" cy="16" rx="3.4" ry="7" fill="#b32f63" opacity="0.55" transform="rotate(36 24 24)"/><ellipse cx="24" cy="16" rx="3.4" ry="7" fill="#b32f63" opacity="0.55" transform="rotate(108 24 24)"/><ellipse cx="24" cy="16" rx="3.4" ry="7" fill="#b32f63" opacity="0.55" transform="rotate(180 24 24)"/><ellipse cx="24" cy="16" rx="3.4" ry="7" fill="#b32f63" opacity="0.55" transform="rotate(252 24 24)"/><ellipse cx="24" cy="16" rx="3.4" ry="7" fill="#b32f63" opacity="0.55" transform="rotate(324 24 24)"/></g><circle cx="24" cy="24" r="6.2" fill="#f1bf40"/><circle cx="24" cy="24" r="2.4" fill="#eaf6ff"/></svg>